# xmcd CD database file
#
# Track frame offsets:
#	150
#	19035
#	34955
#	53490
#	71135
#	91152
#	111615
#	130190
#	149615
#	169070
#
# Disc length: 2495 seconds
#
# Revision: 0
# Processed by: cddbd v1.5.1PL0 Copyright (c) Steve Scherf et al.
# Submitted via: CDex 1.51
#
DISCID=8e09bd0a
DTITLE=堀ちえみ - スカーレット白書
DYEAR=1987
DGENRE=JPop
TTITLE0=紅(スカーレット)白書
TTITLE1=恋
TTITLE2=Lazy Moon
TTITLE3=狙撃手のカイエ
TTITLE4=アリスの眠り
TTITLE5=Smile
TTITLE6=禁じられた瞳
TTITLE7=愛を今信じていたい
TTITLE8=ファースト・フィナーレ
TTITLE9=Faraway
EXTD=YEAR: 1987
EXTT0=
EXTT1=
EXTT2=
EXTT3=
EXTT4=
EXTT5=
EXTT6=
EXTT7=
EXTT8=
EXTT9=
PLAYORDER=
